<svg width="28" height="28" viewBox="0 0 28 28" fill="none" xmlns="http://www.w3.org/2000/svg">
<path d="M15.8665 23.3322H6.53429C6.03415 23.3496 5.54924 23.1585 5.19538 22.8047C4.84151 22.4508 4.65046 21.9659 4.66784 21.4658V12.1335C4.65046 11.6334 4.84151 11.1485 5.19538 10.7946C5.54924 10.4407 6.03415 10.2497 6.53429 10.2671H10.2672V6.53416C10.2498 6.03403 10.4409 5.54912 10.7947 5.19526C11.1486 4.84139 11.6335 4.65034 12.1336 4.66772H21.4659C21.966 4.65034 22.4509 4.84139 22.8048 5.19526C23.1586 5.54912 23.3497 6.03403 23.3323 6.53416V15.8664C23.3494 16.3665 23.1583 16.8512 22.8045 17.205C22.4507 17.5588 21.9659 17.75 21.4659 17.7329H17.733V21.4658C17.7501 21.9658 17.5589 22.4505 17.2051 22.8044C16.8513 23.1582 16.3666 23.3493 15.8665 23.3322ZM6.53429 12.1335V21.4658H15.8665V17.7329H12.1336C11.6336 17.75 11.1488 17.5588 10.795 17.205C10.4412 16.8512 10.2501 16.3665 10.2672 15.8664V12.1335H6.53429ZM12.1336 6.53416V15.8664H21.4659V6.53416H12.1336Z" fill="#000000"/>
</svg>
