<svg width="64" height="52" viewBox="0 0 64 52" fill="none" xmlns="http://www.w3.org/2000/svg">
<path d="M54.4 0H9.6C7.05392 0 4.61212 1.01143 2.81178 2.81178C1.01143 4.61212 0 7.05392 0 9.6V41.6C0 44.1461 1.01143 46.5879 2.81178 48.3882C4.61212 50.1886 7.05392 51.2 9.6 51.2H54.4C56.9461 51.2 59.3879 50.1886 61.1882 48.3882C62.9886 46.5879 64 44.1461 64 41.6V9.6C64 7.05392 62.9886 4.61212 61.1882 2.81178C59.3879 1.01143 56.9461 0 54.4 0V0ZM52.256 6.4L32 21.6L11.744 6.4H52.256ZM54.4 44.8H9.6C8.75131 44.8 7.93738 44.4629 7.33726 43.8627C6.73714 43.2626 6.4 42.4487 6.4 41.6V10.4L30.08 28.16C30.6339 28.5754 31.3076 28.8 32 28.8C32.6924 28.8 33.3661 28.5754 33.92 28.16L57.6 10.4V41.6C57.6 42.4487 57.2629 43.2626 56.6627 43.8627C56.0626 44.4629 55.2487 44.8 54.4 44.8Z" fill="#212121"/>
</svg>
