<svg width="28" height="28" viewBox="0 0 28 28" fill="none" xmlns="http://www.w3.org/2000/svg">
<path d="M13.9997 17.4091C15.8825 17.4091 17.4088 15.8828 17.4088 14C17.4088 12.1172 15.8825 10.5909 13.9997 10.5909C12.1169 10.5909 10.5906 12.1172 10.5906 14C10.5906 15.8828 12.1169 17.4091 13.9997 17.4091Z" stroke="#212121" stroke-width="2.2" stroke-linecap="round" stroke-linejoin="round"/>
<path d="M22.4091 17.4091C22.2578 17.7518 22.2127 18.132 22.2795 18.5007C22.3464 18.8693 22.5221 19.2095 22.7841 19.4773L22.8523 19.5455C23.0636 19.7565 23.2312 20.0072 23.3456 20.2831C23.46 20.559 23.5188 20.8547 23.5188 21.1534C23.5188 21.4521 23.46 21.7478 23.3456 22.0237C23.2312 22.2996 23.0636 22.5503 22.8523 22.7614C22.6412 22.9727 22.3905 23.1403 22.1146 23.2547C21.8387 23.3691 21.543 23.4279 21.2443 23.4279C20.9456 23.4279 20.6499 23.3691 20.374 23.2547C20.0981 23.1403 19.8474 22.9727 19.6364 22.7614L19.5682 22.6932C19.3004 22.4312 18.9602 22.2555 18.5916 22.1886C18.2229 22.1218 17.8427 22.1669 17.5 22.3182C17.1639 22.4622 16.8773 22.7014 16.6753 23.0063C16.4734 23.3112 16.3651 23.6684 16.3636 24.0341V24.2273C16.3636 24.83 16.1242 25.4081 15.698 25.8343C15.2718 26.2606 14.6937 26.5 14.0909 26.5C13.4881 26.5 12.9101 26.2606 12.4838 25.8343C12.0576 25.4081 11.8182 24.83 11.8182 24.2273V24.125C11.8094 23.7489 11.6876 23.3841 11.4688 23.0781C11.2499 22.7721 10.944 22.539 10.5909 22.4091C10.2482 22.2578 9.86796 22.2127 9.49933 22.2795C9.1307 22.3464 8.79054 22.5221 8.52273 22.7841L8.45455 22.8523C8.24347 23.0636 7.99281 23.2312 7.71691 23.3456C7.441 23.46 7.14526 23.5188 6.84659 23.5188C6.54792 23.5188 6.25218 23.46 5.97627 23.3456C5.70037 23.2312 5.44971 23.0636 5.23864 22.8523C5.02733 22.6412 4.85969 22.3905 4.74532 22.1146C4.63095 21.8387 4.57208 21.543 4.57208 21.2443C4.57208 20.9456 4.63095 20.6499 4.74532 20.374C4.85969 20.0981 5.02733 19.8474 5.23864 19.6364L5.30682 19.5682C5.56879 19.3004 5.74453 18.9602 5.81137 18.5916C5.87821 18.2229 5.83309 17.8427 5.68182 17.5C5.53777 17.1639 5.29859 16.8773 4.99371 16.6753C4.68884 16.4734 4.33158 16.3651 3.96591 16.3636H3.77273C3.16996 16.3636 2.59189 16.1242 2.16567 15.698C1.73945 15.2718 1.5 14.6937 1.5 14.0909C1.5 13.4881 1.73945 12.9101 2.16567 12.4838C2.59189 12.0576 3.16996 11.8182 3.77273 11.8182H3.875C4.25113 11.8094 4.61591 11.6876 4.92193 11.4688C5.22795 11.2499 5.46104 10.944 5.59091 10.5909C5.74218 10.2482 5.7873 9.86796 5.72046 9.49933C5.65362 9.1307 5.47788 8.79054 5.21591 8.52273L5.14773 8.45455C4.93642 8.24347 4.76878 7.99281 4.65441 7.71691C4.54004 7.441 4.48117 7.14526 4.48117 6.84659C4.48117 6.54792 4.54004 6.25218 4.65441 5.97627C4.76878 5.70037 4.93642 5.44971 5.14773 5.23864C5.3588 5.02733 5.60946 4.85969 5.88536 4.74532C6.16127 4.63095 6.45701 4.57208 6.75568 4.57208C7.05435 4.57208 7.3501 4.63095 7.626 4.74532C7.90191 4.85969 8.15256 5.02733 8.36364 5.23864L8.43182 5.30682C8.69964 5.56879 9.03979 5.74453 9.40842 5.81137C9.77705 5.87821 10.1573 5.83309 10.5 5.68182H10.5909C10.927 5.53777 11.2137 5.29859 11.4156 4.99371C11.6175 4.68884 11.7258 4.33158 11.7273 3.96591V3.77273C11.7273 3.16996 11.9667 2.59189 12.3929 2.16567C12.8192 1.73945 13.3972 1.5 14 1.5C14.6028 1.5 15.1808 1.73945 15.6071 2.16567C16.0333 2.59189 16.2727 3.16996 16.2727 3.77273V3.875C16.2742 4.24067 16.3825 4.59793 16.5844 4.9028C16.7863 5.20768 17.073 5.44686 17.4091 5.59091C17.7518 5.74218 18.132 5.7873 18.5007 5.72046C18.8693 5.65362 19.2095 5.47788 19.4773 5.21591L19.5455 5.14773C19.7565 4.93642 20.0072 4.76878 20.2831 4.65441C20.559 4.54004 20.8547 4.48117 21.1534 4.48117C21.4521 4.48117 21.7478 4.54004 22.0237 4.65441C22.2996 4.76878 22.5503 4.93642 22.7614 5.14773C22.9727 5.3588 23.1403 5.60946 23.2547 5.88536C23.3691 6.16127 23.4279 6.45701 23.4279 6.75568C23.4279 7.05435 23.3691 7.3501 23.2547 7.626C23.1403 7.90191 22.9727 8.15256 22.7614 8.36364L22.6932 8.43182C22.4312 8.69964 22.2555 9.03979 22.1886 9.40842C22.1218 9.77705 22.1669 10.1573 22.3182 10.5V10.5909C22.4622 10.927 22.7014 11.2137 23.0063 11.4156C23.3112 11.6175 23.6684 11.7258 24.0341 11.7273H24.2273C24.83 11.7273 25.4081 11.9667 25.8343 12.3929C26.2606 12.8192 26.5 13.3972 26.5 14C26.5 14.6028 26.2606 15.1808 25.8343 15.6071C25.4081 16.0333 24.83 16.2727 24.2273 16.2727H24.125C23.7593 16.2742 23.4021 16.3825 23.0972 16.5844C22.7923 16.7863 22.5531 17.073 22.4091 17.4091V17.4091Z" stroke="#212121" stroke-width="2.2" stroke-linecap="round" stroke-linejoin="round"/>
</svg>
