<svg width="24" height="24" viewBox="0 0 24 24" fill="none" xmlns="http://www.w3.org/2000/svg">
<path d="M21.0603 3.69707C19.8643 2.50247 18.4431 1.5602 16.8801 0.925565C15.3172 0.290929 13.6439 -0.0232911 11.9586 0.00134415C8.79492 -0.00661175 5.75765 1.24995 3.51498 3.49459C1.27231 5.73923 0.00794659 8.78809 3.73304e-05 11.9705C-0.00787193 15.1528 1.24132 18.208 3.4728 20.4639C5.70429 22.7198 8.73528 23.9916 11.899 23.9996C12.5807 24.0112 13.247 23.7948 13.7932 23.3844C14.3394 22.9739 14.7347 22.3926 14.917 21.7317C15.0331 21.2545 15.0319 20.7559 14.9135 20.2792C14.795 19.8025 14.5628 19.362 14.237 18.9959C14.1617 18.9097 14.1125 18.8035 14.0954 18.69C14.0783 18.5765 14.0938 18.4605 14.1403 18.3556C14.1868 18.2508 14.2622 18.1616 14.3575 18.0985C14.4529 18.0355 14.5643 18.0013 14.6784 18H16.6466C18.4991 18.0087 20.2863 17.3121 21.6493 16.0502C23.0123 14.7882 23.8502 13.0542 23.9948 11.1965C24.0391 9.81135 23.8017 8.43167 23.2971 7.14208C22.7925 5.8525 22.0313 4.68019 21.0603 3.69707ZM16.6943 15.6002H14.7261C14.1513 15.5969 13.5879 15.7615 13.1042 16.0739C12.6205 16.3864 12.2374 16.8333 12.0012 17.3605C11.7651 17.8876 11.6861 18.4724 11.7738 19.0438C11.8615 19.6153 12.1122 20.1488 12.4954 20.5798C12.57 20.6555 12.6228 20.7503 12.648 20.8538C12.6732 20.9574 12.6699 21.0659 12.6386 21.1678C12.5789 21.4197 12.3046 21.5757 11.9348 21.5997C10.58 21.5823 9.24454 21.2748 8.01711 20.6979C6.78967 20.121 5.69842 19.2877 4.81596 18.2536C3.93351 17.2195 3.28006 16.0083 2.8991 14.7005C2.51813 13.3926 2.41838 12.0182 2.60647 10.6685C2.94664 8.40065 4.07318 6.32683 5.78684 4.81387C7.50051 3.3009 9.69088 2.44629 11.9706 2.40116H12.066C13.4149 2.3834 14.7538 2.63756 16.0035 3.14864C17.2533 3.65973 18.3886 4.41739 19.3425 5.37694C20.0869 6.12616 20.6717 7.02005 21.0614 8.00408C21.4511 8.98811 21.6374 10.0417 21.609 11.1005C21.4855 12.3281 20.9154 13.4665 20.0083 14.297C19.1012 15.1276 17.9209 15.5917 16.6943 15.6002Z" fill="#808080"/>
<path d="M12.066 7.20078C13.0542 7.20078 13.8553 6.39495 13.8553 5.40092C13.8553 4.40688 13.0542 3.60105 12.066 3.60105C11.0778 3.60105 10.2767 4.40688 10.2767 5.40092C10.2767 6.39495 11.0778 7.20078 12.066 7.20078Z" fill="#808080"/>
<path d="M15.9428 6.2409C15.6365 6.41892 15.3895 6.68431 15.233 7.00351C15.0765 7.32272 15.0177 7.68142 15.0638 8.03427C15.11 8.38712 15.2591 8.71829 15.4924 8.98591C15.7256 9.25352 16.0325 9.44558 16.3742 9.5378C16.7159 9.63003 17.0772 9.61827 17.4122 9.50403C17.7473 9.38979 18.0412 9.17818 18.2568 8.89596C18.4723 8.61374 18.5999 8.27357 18.6233 7.91846C18.6467 7.56334 18.5649 7.20922 18.3882 6.90085C18.2708 6.69591 18.1144 6.51625 17.928 6.37214C17.7415 6.22804 17.5286 6.12232 17.3015 6.06103C17.0744 5.99974 16.8375 5.98408 16.6044 6.01494C16.3713 6.0458 16.1465 6.12259 15.9428 6.2409Z" fill="#808080"/>
<path d="M8.18913 6.24085C7.88257 6.06318 7.53052 5.98091 7.17749 6.00445C6.82445 6.02798 6.48628 6.15627 6.20572 6.3731C5.92515 6.58992 5.71478 6.88555 5.60121 7.22261C5.48764 7.55967 5.47595 7.92303 5.56763 8.26677C5.65932 8.61051 5.85025 8.91919 6.1163 9.1538C6.38235 9.38841 6.71157 9.53841 7.06235 9.58485C7.41314 9.63129 7.76973 9.57208 8.08707 9.4147C8.40441 9.25732 8.66824 9.00884 8.84521 8.70067C8.96283 8.49586 9.03916 8.26973 9.06985 8.03522C9.10053 7.80072 9.08496 7.56243 9.02403 7.33397C8.9631 7.10552 8.85799 6.89139 8.71474 6.70383C8.57148 6.51626 8.39287 6.35894 8.18913 6.24085Z" fill="#808080"/>
<path d="M5.09959 11.1125C4.8061 11.3119 4.57802 11.5943 4.44421 11.9241C4.31041 12.2539 4.2769 12.6162 4.34793 12.9652C4.41896 13.3142 4.59134 13.6341 4.84324 13.8845C5.09513 14.1349 5.41522 14.3044 5.76297 14.3717C6.11072 14.4389 6.4705 14.4009 6.79674 14.2624C7.12299 14.1238 7.40104 13.8911 7.59568 13.5935C7.79032 13.2959 7.8928 12.9469 7.89014 12.5907C7.88749 12.2345 7.77982 11.8871 7.58077 11.5925C7.45 11.3961 7.28183 11.2278 7.08597 11.0972C6.89011 10.9666 6.67046 10.8764 6.43973 10.8318C6.20899 10.7872 5.97174 10.789 5.74171 10.8372C5.51168 10.8854 5.29343 10.979 5.09959 11.1125Z" fill="#808080"/>
</svg>
