<svg width="32" height="32" viewBox="0 0 32 32" fill="none" xmlns="http://www.w3.org/2000/svg">
<path d="M5.66667 27.6667C5.66667 29.5 7.16667 31 9 31H22.3333C24.1667 31 25.6667 29.5 25.6667 27.6667V11C25.6667 9.16667 24.1667 7.66667 22.3333 7.66667H9C7.16667 7.66667 5.66667 9.16667 5.66667 11V27.6667ZM10.6667 11H20.6667C21.5833 11 22.3333 11.75 22.3333 12.6667V26C22.3333 26.9167 21.5833 27.6667 20.6667 27.6667H10.6667C9.75 27.6667 9 26.9167 9 26V12.6667C9 11.75 9.75 11 10.6667 11ZM21.5 2.66667L20.3167 1.48333C20.0167 1.18333 19.5833 1 19.15 1H12.1833C11.75 1 11.3167 1.18333 11.0167 1.48333L9.83333 2.66667H5.66667C4.75 2.66667 4 3.41667 4 4.33333C4 5.25 4.75 6 5.66667 6H25.6667C26.5833 6 27.3333 5.25 27.3333 4.33333C27.3333 3.41667 26.5833 2.66667 25.6667 2.66667H21.5Z" fill="#fafafa"/>
</svg>
