<svg width="24" height="24" viewBox="0 0 24 24" fill="none" xmlns="http://www.w3.org/2000/svg">
<path d="M4.06066 1.93934C3.47487 1.35355 2.52513 1.35355 1.93934 1.93934C1.35355 2.52513 1.35355 3.47487 1.93934 4.06066L4.06066 1.93934ZM19.9393 22.0607C20.5251 22.6464 21.4749 22.6464 22.0607 22.0607C22.6464 21.4749 22.6464 20.5251 22.0607 19.9393L19.9393 22.0607ZM22.0607 4.06066C22.6464 3.47487 22.6464 2.52513 22.0607 1.93934C21.4749 1.35355 20.5251 1.35355 19.9393 1.93934L22.0607 4.06066ZM1.93934 19.9393C1.35355 20.5251 1.35355 21.4749 1.93934 22.0607C2.52513 22.6464 3.47487 22.6464 4.06066 22.0607L1.93934 19.9393ZM1.93934 4.06066L10.9393 13.0607L13.0607 10.9393L4.06066 1.93934L1.93934 4.06066ZM10.9393 13.0607L19.9393 22.0607L22.0607 19.9393L13.0607 10.9393L10.9393 13.0607ZM13.0607 13.0607L22.0607 4.06066L19.9393 1.93934L10.9393 10.9393L13.0607 13.0607ZM19.9393 1.93934L1.93934 19.9393L4.06066 22.0607L22.0607 4.06066L19.9393 1.93934Z" fill="#fafafa"/>
</svg>
