<svg width="222" height="216" viewBox="0 0 222 216" fill="none" xmlns="http://www.w3.org/2000/svg">
<path d="M111 0C49.6725 0 0 49.5848 0 110.742C0 159.681 31.8015 201.181 75.8962 215.809C81.4463 216.851 83.4812 213.428 83.4812 210.484C83.4812 207.854 83.3888 200.886 83.3425 191.658C52.466 198.339 45.954 176.8 45.954 176.8C40.9035 164.018 33.6052 160.604 33.6052 160.604C23.5505 153.738 34.3823 153.876 34.3823 153.876C45.5285 154.651 51.3837 165.283 51.3837 165.283C61.2812 182.217 77.367 177.326 83.7125 174.493C84.7115 167.331 87.5698 162.449 90.7425 159.681C66.0913 156.912 40.182 147.389 40.182 104.956C40.182 92.8665 44.4832 82.992 51.6058 75.24C50.357 72.4438 46.6108 61.185 52.577 45.9303C52.577 45.9303 61.8733 42.9587 83.102 57.2814C91.982 54.8173 101.417 53.5992 110.852 53.5438C120.287 53.5992 129.722 54.8173 138.602 57.2814C159.692 42.9587 168.988 45.9303 168.988 45.9303C174.954 61.185 171.208 72.4438 170.098 75.24C177.174 82.992 181.476 92.8665 181.476 104.956C181.476 147.499 155.529 156.866 130.832 159.589C134.717 162.911 138.325 169.703 138.325 180.076C138.325 194.897 138.186 206.802 138.186 210.401C138.186 213.308 140.128 216.768 145.817 215.661C190.226 201.135 222 159.607 222 110.742C222 49.5848 172.3 0 111 0Z" fill="#E8EAEA"/>
</svg>
