<svg width="32" height="32" viewBox="0 0 32 32" fill="none" xmlns="http://www.w3.org/2000/svg">
<path d="M14.15 19.7C13.5149 19.7 13 20.2148 13 20.85C13 21.4851 13.5149 22 14.15 22V19.7ZM17.85 22C18.4851 22 19 21.4851 19 20.85C19 20.2148 18.4851 19.7 17.85 19.7V22ZM14.15 24.7C13.5149 24.7 13 25.2148 13 25.85C13 26.4851 13.5149 27 14.15 27V24.7ZM17.85 27C18.4851 27 19 26.4851 19 25.85C19 25.2148 18.4851 24.7 17.85 24.7V27ZM7.14999 19.7C6.51487 19.7 5.99999 20.2148 5.99999 20.85C5.99999 21.4851 6.51487 22 7.14999 22V19.7ZM10.85 22C11.4851 22 12 21.4851 12 20.85C12 20.2148 11.4851 19.7 10.85 19.7V22ZM7.14999 24.7C6.51487 24.7 5.99999 25.2148 5.99999 25.85C5.99999 26.4851 6.51487 27 7.14999 27V24.7ZM10.85 27C11.4851 27 12 26.4851 12 25.85C12 25.2148 11.4851 24.7 10.85 24.7V27ZM15.15 20.7C14.5149 20.7 14 21.2148 14 21.85C14 22.4851 14.5149 23 15.15 23V20.7ZM16.85 23C17.4851 23 18 22.4851 18 21.85C18 21.2148 17.4851 20.7 16.85 20.7V23ZM15.15 25.7C14.5149 25.7 14 26.2148 14 26.85C14 27.4851 14.5149 28 15.15 28V25.7ZM16.85 28C17.4851 28 18 27.4851 18 26.85C18 26.2148 17.4851 25.7 16.85 25.7V28ZM8.14999 20.7C7.51487 20.7 6.99999 21.2148 6.99999 21.85C6.99999 22.4851 7.51487 23 8.14999 23V20.7ZM9.84999 23C10.4851 23 11 22.4851 11 21.85C11 21.2148 10.4851 20.7 9.84999 20.7V23ZM8.14999 25.7C7.51487 25.7 6.99999 26.2148 6.99999 26.85C6.99999 27.4851 7.51487 28 8.14999 28V25.7ZM9.84999 28C10.4851 28 11 27.4851 11 26.85C11 26.2148 10.4851 25.7 9.84999 25.7V28ZM21.15 19.7C20.5149 19.7 20 20.2148 20 20.85C20 21.4851 20.5149 22 21.15 22V19.7ZM24.85 22C25.4851 22 26 21.4851 26 20.85C26 20.2148 25.4851 19.7 24.85 19.7V22ZM21.15 24.7C20.5149 24.7 20 25.2148 20 25.85C20 26.4851 20.5149 27 21.15 27V24.7ZM24.85 27C25.4851 27 26 26.4851 26 25.85C26 25.2148 25.4851 24.7 24.85 24.7V27ZM22.15 20.7C21.5149 20.7 21 21.2148 21 21.85C21 22.4851 21.5149 23 22.15 23V20.7ZM23.85 23C24.4851 23 25 22.4851 25 21.85C25 21.2148 24.4851 20.7 23.85 20.7V23ZM22.15 25.7C21.5149 25.7 21 26.2148 21 26.85C21 27.4851 21.5149 28 22.15 28V25.7ZM23.85 28C24.4851 28 25 27.4851 25 26.85C25 26.2148 24.4851 25.7 23.85 25.7V28ZM14.15 22H17.85V19.7H14.15V22ZM14.15 27H17.85V24.7H14.15V27ZM7.14999 22H10.85V19.7H7.14999V22ZM7.14999 27H10.85V24.7H7.14999V27ZM15.15 23H16.85V20.7H15.15V23ZM15.15 28H16.85V25.7H15.15V28ZM8.14999 23H9.84999V20.7H8.14999V23ZM8.14999 28H9.84999V25.7H8.14999V28ZM21.15 22H24.85V19.7H21.15V22ZM21.15 27H24.85V24.7H21.15V27ZM22.15 23H23.85V20.7H22.15V23ZM22.15 28H23.85V25.7H22.15V28Z" fill="#212121"/>
<path d="M24 4H8C6.89543 4 6 4.89543 6 6V15C6 16.1046 6.89543 17 8 17H24C25.1046 17 26 16.1046 26 15V6C26 4.89543 25.1046 4 24 4Z" stroke="#212121" stroke-width="2.2"/>
<circle cx="11" cy="9" r="2.1" stroke="#212121" stroke-width="1.8"/>
</svg>
