<svg width="26" height="26" viewBox="0 0 28 29" fill="none" xmlns="http://www.w3.org/2000/svg">
<g clip-path="url(#clip0_151_158)">
<path d="M14.3913 28.0024H14.251C12.3273 27.9877 10.4258 27.5893 8.65796 26.8303C6.8901 26.0714 5.29139 24.9672 3.95543 23.5825C1.47811 20.9323 0.0698801 17.4581 0.0025319 13.8304C-0.0648163 10.2027 1.21349 6.67861 3.59074 3.93826C5.12229 2.22128 7.04766 0.90194 9.20141 0.0936077C9.45271 -0.00312814 9.72654 -0.0254599 9.99019 0.029279C10.2538 0.0840179 10.4962 0.213514 10.6882 0.402302C10.8661 0.583761 10.9914 0.810143 11.0507 1.05727C11.11 1.30441 11.1011 1.563 11.0249 1.80546C10.2562 3.91151 10.1038 6.1932 10.5858 8.38279C11.0678 10.5724 12.1641 12.579 13.746 14.1673C15.3427 15.7449 17.3535 16.8379 19.5454 17.3196C21.7374 17.8014 24.0209 17.6522 26.1316 16.8894C26.3828 16.8009 26.654 16.7858 26.9135 16.8459C27.173 16.906 27.41 17.0387 27.5969 17.2285C27.7837 17.4184 27.9127 17.6576 27.9687 17.918C28.0246 18.1785 28.0053 18.4496 27.913 18.6995C27.1964 20.613 26.0771 22.35 24.6307 23.7929C23.2854 25.1348 21.6882 26.1974 19.9309 26.9198C18.1737 27.6422 16.2911 28.0101 14.3913 28.0024V28.0024Z" fill="#212121"/>
</g>
<defs>
<clipPath id="clip0_151_158">
<rect width="28" height="28.0025" fill="white"/>
</clipPath>
</defs>
</svg>
