<svg width="32" height="32" viewBox="0 0 32 32" fill="none" xmlns="http://www.w3.org/2000/svg">
    <path d="M11.7182 25.3859L10.0982 26.9959C9.41952 27.6639 8.50542 28.0383 7.55315 28.0383C6.60087 28.0383 5.68677 27.6639 5.00811 26.9959C4.67721 26.6682 4.41454 26.2782 4.23528 25.8484C4.05602 25.4186 3.96372 24.9576 3.96372 24.4919C3.96372 24.0262 4.05602 23.5651 4.23528 23.1353C4.41454 22.7055 4.67721 22.3155 5.00811 21.9878L10.9682 16.0777C12.2022 14.8517 14.5263 13.0477 16.2203 14.7277C16.4026 14.9221 16.6222 15.0778 16.866 15.1854C17.1098 15.2931 17.3727 15.3505 17.6392 15.3543C17.9057 15.3581 18.1702 15.3082 18.4169 15.2075C18.6637 15.1069 18.8876 14.9575 19.0754 14.7684C19.2632 14.5793 19.4109 14.3543 19.5098 14.1068C19.6087 13.8594 19.6568 13.5945 19.6511 13.3281C19.6454 13.0616 19.586 12.7991 19.4766 12.5561C19.3672 12.3131 19.21 12.0946 19.0143 11.9137C16.1383 9.05762 11.8822 9.58563 8.17616 13.2637L2.21606 19.1758C1.51183 19.8701 0.953126 20.6978 0.572622 21.6106C0.192118 22.5234 -0.00254359 23.5029 2.50936e-05 24.4919C-0.00243192 25.4808 0.19228 26.4603 0.572778 27.373C0.953275 28.2858 1.51192 29.1136 2.21606 29.808C3.63548 31.2159 5.5549 32.0041 7.55415 32C9.48818 32 11.4222 31.27 12.8922 29.808L14.5143 28.1979C14.6992 28.015 14.8463 27.7973 14.9469 27.5574C15.0476 27.3175 15.0999 27.0601 15.1008 26.8C15.1017 26.5398 15.0513 26.2821 14.9523 26.0414C14.8534 25.8008 14.7079 25.5821 14.5243 25.3979C14.153 25.0256 13.6495 24.8154 13.1237 24.8131C12.5979 24.8109 12.0927 25.0168 11.7182 25.3859V25.3859ZM29.7825 2.41751C26.6885 -0.650535 22.3644 -0.816538 19.5043 2.02351L17.4863 4.02754C17.1134 4.39779 16.9029 4.901 16.901 5.42649C16.8991 5.95198 17.1061 6.45668 17.4763 6.82958C17.8466 7.20248 18.3498 7.41303 18.8753 7.41491C19.4007 7.41678 19.9055 7.20983 20.2784 6.83958L22.2984 4.83755C23.7784 3.36553 25.7204 3.97554 26.9905 5.23156C27.6625 5.90157 28.0345 6.78958 28.0345 7.7356C28.0345 8.68161 27.6625 9.56963 26.9905 10.2376L20.6304 16.5457C17.7223 19.4278 16.3583 18.0778 15.7763 17.4998C15.5916 17.3164 15.3727 17.1713 15.132 17.0725C14.8912 16.9738 14.6334 16.9235 14.3732 16.9244C14.113 16.9254 13.8555 16.9775 13.6155 17.078C13.3755 17.1784 13.1576 17.3251 12.9742 17.5098C12.7909 17.6944 12.6457 17.9133 12.547 18.1541C12.4483 18.3948 12.398 18.6527 12.3989 18.9128C12.3998 19.173 12.452 19.4305 12.5524 19.6705C12.6529 19.9106 12.7996 20.1285 12.9842 20.3118C14.3203 21.6358 15.8443 22.2918 17.4403 22.2918C19.3943 22.2918 21.4604 21.3078 23.4264 19.3578L29.7865 13.0517C30.4892 12.3563 31.0468 11.5283 31.4268 10.6158C31.8069 9.70317 32.0019 8.72417 32.0005 7.7356C32.0023 6.74631 31.8071 5.76657 31.4263 4.85351C31.0455 3.94045 30.4867 3.11235 29.7825 2.41751V2.41751Z"
          fill="#FAFAFA"/>
</svg>
