<svg width="32" height="32" viewBox="0 0 32 32" fill="none" xmlns="http://www.w3.org/2000/svg">
<path d="M17.1737 9.29305C17.0639 8.62986 17.5134 7.99492 18.1852 7.97074C19.7551 7.91424 21.3214 8.24786 22.7407 8.95029C24.5252 9.83347 25.9872 11.255 26.9199 13.0141C27.8527 14.7733 28.2092 16.781 27.939 18.7537C27.6688 20.7264 26.7857 22.5643 25.4142 24.0079C24.0428 25.4514 22.2525 26.4275 20.2963 26.7984C18.34 27.1692 16.3166 26.916 14.5121 26.0746C12.7075 25.2331 11.2129 23.8459 10.2395 22.1089C9.46533 20.7275 9.05194 19.1803 9.02797 17.6095C9.01772 16.9374 9.6288 16.456 10.2967 16.5317V16.5317C10.9647 16.6074 11.4338 17.213 11.4737 17.8841C11.5367 18.9447 11.8386 19.9829 12.3631 20.9188C13.0871 22.2107 14.1987 23.2424 15.5408 23.8683C16.883 24.4941 18.3879 24.6824 19.8429 24.4066C21.2978 24.1308 22.6294 23.4048 23.6494 22.3312C24.6694 21.2575 25.3262 19.8906 25.5272 18.4234C25.7281 16.9562 25.463 15.4629 24.7692 14.1546C24.0755 12.8462 22.9882 11.7889 21.6609 11.132C20.6993 10.6561 19.647 10.4079 18.5846 10.3992C17.9124 10.3937 17.2836 9.95624 17.1737 9.29305V9.29305Z" fill="#fafafa"/>
<path d="M18.8782 10.3869C19.541 10.3862 20.0776 9.84838 20.0769 9.18564C20.0762 8.5229 19.5384 7.98623 18.8756 7.98695L18.8782 10.3869ZM5.37367 8.00161C4.71093 8.00233 4.17425 8.54017 4.17497 9.20291C4.17569 9.86565 4.71353 10.4023 5.37627 10.4016L5.37367 8.00161ZM5.07458 9.05528L4.35185 8.09734L4.34454 8.10286L4.33731 8.10849L5.07458 9.05528ZM11.0244 6.06961C11.5535 5.67045 11.6588 4.91799 11.2596 4.38893C10.8605 3.85987 10.108 3.75456 9.57894 4.15372L11.0244 6.06961ZM5.07223 9.36902L4.32081 10.3047L4.32961 10.3116L5.07223 9.36902ZM9.71307 14.5529C10.2337 14.963 10.9882 14.8735 11.3983 14.3529C11.8084 13.8323 11.7189 13.0778 11.1983 12.6677L9.71307 14.5529ZM18.8756 7.98695L5.37367 8.00161L5.37627 10.4016L18.8782 10.3869L18.8756 7.98695ZM5.79732 10.0132L11.0244 6.06961L9.57894 4.15372L4.35185 8.09734L5.79732 10.0132ZM4.32961 10.3116L9.71307 14.5529L11.1983 12.6677L5.81485 8.42641L4.32961 10.3116ZM4.33731 8.10849C3.62435 8.66368 3.61628 9.73884 4.32084 10.3047L5.82362 8.43339C6.32688 8.83754 6.32112 9.60552 5.81186 10.0021L4.33731 8.10849Z" fill="#fafafa"/>
</svg>
