<svg width="28" height="29" viewBox="0 0 31 32" fill="none" xmlns="http://www.w3.org/2000/svg">
<path d="M15.3811 0C16.5856 0.0131286 17.7852 0.15262 18.9619 0.415191C19.2122 0.471069 19.4388 0.603754 19.61 0.794706C19.7813 0.985658 19.8886 1.22533 19.917 1.48025L20.196 3.98616C20.2353 4.33946 20.3571 4.67858 20.5515 4.97623C20.7458 5.27388 21.0073 5.52176 21.315 5.69992C21.6226 5.87807 21.9677 5.98153 22.3226 6.00197C22.6775 6.02241 23.0323 5.95926 23.3583 5.8176L25.6574 4.80834C25.8909 4.70553 26.1505 4.67778 26.4004 4.72893C26.6503 4.78009 26.8781 4.90762 27.0523 5.09389C28.713 6.86803 29.9497 8.99571 30.6693 11.3168C30.7447 11.5608 30.7425 11.8221 30.6628 12.0647C30.5831 12.3073 30.4299 12.519 30.2245 12.6707L28.1863 14.1739C27.8997 14.3845 27.6666 14.6595 27.506 14.9768C27.3454 15.2941 27.2617 15.6448 27.2617 16.0004C27.2617 16.3561 27.3454 16.7068 27.506 17.0241C27.6666 17.3414 27.8997 17.6164 28.1863 17.827L30.2262 19.3285C30.4322 19.4801 30.5859 19.6921 30.6659 19.935C30.7459 20.1779 30.7482 20.4397 30.6726 20.6841C29.9527 23.0051 28.7161 25.1327 27.0556 26.907C26.8818 27.0929 26.6547 27.2203 26.4054 27.2717C26.1562 27.3231 25.8972 27.2961 25.664 27.1942L23.355 26.1817C23.0294 26.0389 22.6748 25.9748 22.3198 25.9945C21.9648 26.0143 21.6195 26.1173 21.3117 26.2953C21.004 26.4733 20.7424 26.7213 20.5483 27.0192C20.3542 27.317 20.2329 27.6564 20.1943 28.0098L19.917 30.5141C19.889 30.7662 19.7838 31.0036 19.6158 31.1936C19.4477 31.3837 19.2251 31.5172 18.9783 31.5758C16.6013 32.1414 14.1247 32.1414 11.7477 31.5758C11.5009 31.5172 11.2782 31.3837 11.1102 31.1936C10.9422 31.0036 10.837 30.7662 10.809 30.5141L10.5333 28.0131C10.4931 27.6605 10.3708 27.3224 10.1761 27.0257C9.98142 26.7291 9.71986 26.4822 9.41244 26.3051C9.10502 26.1279 8.76031 26.0253 8.40604 26.0056C8.05177 25.9859 7.69781 26.0495 7.37262 26.1915L5.06528 27.2024C4.83188 27.3046 4.57251 27.3319 4.32295 27.2805C4.07339 27.229 3.84595 27.1014 3.67201 26.9152C2.01077 25.139 0.774096 23.009 0.0550861 20.6857C-0.0205734 20.4414 -0.018243 20.1796 0.0617532 19.9366C0.141749 19.6937 0.295437 19.4817 0.501457 19.3302L2.54131 17.827C2.82825 17.6166 3.06159 17.3416 3.22244 17.0243C3.38328 16.707 3.4671 16.3562 3.4671 16.0004C3.4671 15.6447 3.38328 15.2939 3.22244 14.9766C3.06159 14.6592 2.82825 14.3843 2.54131 14.1739L0.501457 12.674C0.295728 12.5222 0.142366 12.3102 0.0626691 12.0672C-0.0170282 11.8243 -0.0191051 11.5626 0.056727 11.3185C0.776376 8.99738 2.01303 6.8697 3.67365 5.09553C3.84791 4.90926 4.07573 4.78173 4.32562 4.73057C4.57551 4.67942 4.83512 4.70717 5.06856 4.80998L7.36606 5.81924C7.69266 5.96082 8.04792 6.02382 8.40329 6.00318C8.75866 5.98254 9.10424 5.87885 9.41226 5.70042C9.72029 5.52199 9.98217 5.2738 10.1769 4.9758C10.3716 4.67779 10.4937 4.33827 10.5333 3.98452L10.8123 1.48025C10.8405 1.22482 10.9479 0.984616 11.1194 0.793317C11.291 0.602018 11.5182 0.469222 11.7691 0.41355C12.9457 0.15262 14.1486 0.0147696 15.3811 0ZM15.3811 2.46161C14.6366 2.47035 13.8939 2.53453 13.159 2.65361L12.9802 4.25694C12.8982 4.9947 12.644 5.70288 12.2381 6.32434C11.8321 6.9458 11.2858 7.46314 10.6431 7.83462C10.0005 8.2061 9.27949 8.42131 8.53835 8.46291C7.79722 8.5045 7.05668 8.37131 6.37649 8.07407L4.90281 7.42749C3.9641 8.56659 3.21696 9.85082 2.69065 11.2299L4.00022 12.1932C4.59792 12.6324 5.08389 13.2062 5.41883 13.868C5.75378 14.5298 5.92831 15.2612 5.92831 16.0029C5.92831 16.7447 5.75378 17.476 5.41883 18.1378C5.08389 18.7997 4.59792 19.3734 4.00022 19.8127L2.68901 20.7776C3.21415 22.1594 3.96248 23.446 4.90117 24.5882L6.38634 23.9367C7.06491 23.6404 7.80356 23.5076 8.54283 23.5489C9.2821 23.5903 10.0013 23.8046 10.6426 24.1746C11.284 24.5447 11.8294 25.0602 12.2351 25.6796C12.6409 26.2989 12.8955 27.0049 12.9785 27.7407L13.159 29.3555C14.618 29.6016 16.1097 29.6016 17.5686 29.3555L17.7491 27.7407C17.8308 27.004 18.0846 26.2968 18.4899 25.6762C18.8953 25.0557 19.4408 24.5391 20.0826 24.1682C20.7243 23.7974 21.4443 23.5826 22.1844 23.5412C22.9244 23.4998 23.6638 23.6331 24.3429 23.9301L25.8281 24.58C26.7663 23.4402 27.5129 22.1554 28.0386 20.776L26.7291 19.811C26.1314 19.3717 25.6454 18.798 25.3104 18.1362C24.9755 17.4744 24.801 16.743 24.801 16.0013C24.801 15.2595 24.9755 14.5282 25.3104 13.8663C25.6454 13.2045 26.1314 12.6308 26.7291 12.1915L28.0353 11.2282C27.509 9.84918 26.7619 8.56495 25.8232 7.42585L24.3528 8.07079C23.673 8.3684 22.9327 8.50197 22.1917 8.46073C21.4508 8.41949 20.7299 8.20459 20.0873 7.83338C19.4447 7.46217 18.8984 6.94506 18.4926 6.32379C18.0867 5.70252 17.8326 4.99452 17.7508 4.25694L17.5702 2.65525C16.8468 2.53698 16.1156 2.47281 15.3827 2.46325L15.3811 2.46161ZM15.3614 9.84643C16.9935 9.84643 18.5588 10.4948 19.7129 11.6489C20.867 12.803 21.5154 14.3683 21.5154 16.0004C21.5154 17.6326 20.867 19.1979 19.7129 20.352C18.5588 21.5061 16.9935 22.1545 15.3614 22.1545C13.7292 22.1545 12.1639 21.5061 11.0098 20.352C9.85571 19.1979 9.20734 17.6326 9.20734 16.0004C9.20734 14.3683 9.85571 12.803 11.0098 11.6489C12.1639 10.4948 13.7292 9.84643 15.3614 9.84643V9.84643ZM15.3614 12.308C14.3821 12.308 13.4429 12.6971 12.7504 13.3895C12.058 14.082 11.6689 15.0212 11.6689 16.0004C11.6689 16.9797 12.058 17.9189 12.7504 18.6114C13.4429 19.3038 14.3821 19.6929 15.3614 19.6929C16.3406 19.6929 17.2798 19.3038 17.9723 18.6114C18.6647 17.9189 19.0538 16.9797 19.0538 16.0004C19.0538 15.0212 18.6647 14.082 17.9723 13.3895C17.2798 12.6971 16.3406 12.308 15.3614 12.308Z" fill="#FAFAFA"/>
</svg>
