<svg width="32" height="32" viewBox="0 0 32 32" fill="none" xmlns="http://www.w3.org/2000/svg">
<path d="M25.0603 7.69707C23.8643 6.50247 22.4431 5.5602 20.8801 4.92557C19.3172 4.29093 17.6439 3.97671 15.9586 4.00134C12.7949 3.99339 9.75765 5.24995 7.51498 7.49459C5.27231 9.73923 4.00795 12.7881 4.00004 15.9705C3.99213 19.1528 5.24132 22.208 7.4728 24.4639C9.70429 26.7198 12.7353 27.9916 15.899 27.9996C16.5807 28.0112 17.247 27.7948 17.7932 27.3844C18.3394 26.9739 18.7347 26.3926 18.917 25.7317C19.0331 25.2545 19.0319 24.7559 18.9135 24.2792C18.795 23.8025 18.5628 23.362 18.237 22.9959C18.1617 22.9097 18.1125 22.8035 18.0954 22.69C18.0783 22.5765 18.0938 22.4605 18.1403 22.3556C18.1868 22.2508 18.2622 22.1616 18.3575 22.0985C18.4529 22.0355 18.5643 22.0013 18.6784 22H20.6466C22.4991 22.0087 24.2863 21.3121 25.6493 20.0502C27.0123 18.7882 27.8502 17.0542 27.9948 15.1965C28.0391 13.8113 27.8017 12.4317 27.2971 11.1421C26.7925 9.8525 26.0313 8.68019 25.0603 7.69707ZM20.6943 19.6002H18.7261C18.1513 19.5969 17.5879 19.7615 17.1042 20.0739C16.6205 20.3864 16.2374 20.8333 16.0012 21.3605C15.7651 21.8876 15.6861 22.4724 15.7738 23.0438C15.8615 23.6153 16.1122 24.1488 16.4954 24.5798C16.57 24.6555 16.6228 24.7503 16.648 24.8538C16.6732 24.9574 16.6699 25.0659 16.6386 25.1678C16.5789 25.4197 16.3046 25.5757 15.9348 25.5997C14.58 25.5823 13.2445 25.2748 12.0171 24.6979C10.7897 24.121 9.69842 23.2877 8.81596 22.2536C7.93351 21.2195 7.28006 20.0083 6.8991 18.7005C6.51813 17.3926 6.41838 16.0182 6.60647 14.6685C6.94664 12.4007 8.07318 10.3268 9.78684 8.81387C11.5005 7.3009 13.6909 6.44629 15.9706 6.40116H16.066C17.4149 6.3834 18.7538 6.63756 20.0035 7.14864C21.2533 7.65973 22.3886 8.41739 23.3425 9.37694C24.0869 10.1262 24.6717 11.02 25.0614 12.0041C25.4511 12.9881 25.6374 14.0417 25.609 15.1005C25.4855 16.3281 24.9154 17.4665 24.0083 18.297C23.1012 19.1276 21.9209 19.5917 20.6943 19.6002Z" fill="#fafafa"/>
<path d="M16.0659 11.2008C17.0541 11.2008 17.8552 10.395 17.8552 9.40094C17.8552 8.4069 17.0541 7.60107 16.0659 7.60107C15.0777 7.60107 14.2766 8.4069 14.2766 9.40094C14.2766 10.395 15.0777 11.2008 16.0659 11.2008Z" fill="#fafafa"/>
<path d="M19.9429 10.2409C19.6366 10.4189 19.3896 10.6843 19.2331 11.0035C19.0766 11.3227 19.0178 11.6814 19.0639 12.0342C19.1101 12.3871 19.2592 12.7182 19.4925 12.9859C19.7257 13.2535 20.0326 13.4455 20.3743 13.5378C20.716 13.63 21.0773 13.6182 21.4123 13.504C21.7474 13.3897 22.0413 13.1781 22.2569 12.8959C22.4724 12.6137 22.6 12.2735 22.6234 11.9184C22.6468 11.5633 22.565 11.2092 22.3883 10.9008C22.2709 10.6959 22.1145 10.5162 21.9281 10.3721C21.7416 10.228 21.5287 10.1223 21.3016 10.061C21.0745 9.9997 20.8376 9.98404 20.6045 10.0149C20.3714 10.0458 20.1466 10.1225 19.9429 10.2409Z" fill="#fafafa"/>
<path d="M12.1892 10.2408C11.8826 10.0632 11.5306 9.98089 11.1776 10.0044C10.8245 10.028 10.4864 10.1563 10.2058 10.3731C9.92523 10.5899 9.71486 10.8855 9.60129 11.2226C9.48772 11.5597 9.47603 11.923 9.56771 12.2668C9.6594 12.6105 9.85033 12.9192 10.1164 13.1538C10.3824 13.3884 10.7116 13.5384 11.0624 13.5848C11.4132 13.6313 11.7698 13.5721 12.0871 13.4147C12.4045 13.2573 12.6683 13.0088 12.8453 12.7007C12.9629 12.4958 13.0392 12.2697 13.0699 12.0352C13.1006 11.8007 13.085 11.5624 13.0241 11.334C12.9632 11.1055 12.8581 10.8914 12.7148 10.7038C12.5716 10.5162 12.3929 10.3589 12.1892 10.2408Z" fill="#fafafa"/>
<path d="M9.09955 15.1125C8.80606 15.3119 8.57798 15.5943 8.44417 15.9241C8.31037 16.2539 8.27686 16.6162 8.34789 16.9652C8.41892 17.3142 8.5913 17.6341 8.8432 17.8845C9.09509 18.1349 9.41518 18.3044 9.76293 18.3717C10.1107 18.4389 10.4705 18.4009 10.7967 18.2624C11.1229 18.1238 11.401 17.8911 11.5956 17.5935C11.7903 17.2959 11.8928 16.9469 11.8901 16.5907C11.8874 16.2345 11.7798 15.8871 11.5807 15.5925C11.45 15.3961 11.2818 15.2278 11.0859 15.0972C10.8901 14.9666 10.6704 14.8764 10.4397 14.8318C10.2089 14.7872 9.9717 14.789 9.74167 14.8372C9.51164 14.8854 9.29339 14.979 9.09955 15.1125Z" fill="#fafafa"/>
</svg>
