<svg width="32" height="32" viewBox="0 0 32 32" fill="none" xmlns="http://www.w3.org/2000/svg">
<path d="M26.2016 19.6393C26.0729 19.7316 23.4038 22.5998 23.4038 24.6138C23.4038 26.7373 24.7314 28.0932 26.2016 28.1671C27.4689 28.2297 28.9993 26.9007 28.9993 24.6138C28.9993 22.4819 26.3303 19.7316 26.2016 19.6393V19.6393ZM3 18.218C3 18.9769 3.29096 19.6904 3.81973 20.2277L11.6338 28.1671C12.1626 28.7044 12.8648 29 13.6118 29C14.3588 29 15.061 28.7044 15.5898 28.1671L25.3818 18.218L24.3928 17.2131L13.6118 6.25906L10.4042 3L8.42619 5.00973L11.6338 8.26879L3.81973 16.2082C3.29096 16.7455 3 17.459 3 18.218V18.218ZM13.6118 10.2785L21.4258 18.218L13.6118 26.1574H13.6132L13.6118 27.5787V26.1574L5.79773 18.218L13.6118 10.2785Z" fill="#fafafa"/>
</svg>
