<svg width="32" height="32" viewBox="0 0 32 32" fill="none" xmlns="http://www.w3.org/2000/svg">
<path d="M24 4H8C6.89543 4 6 4.89543 6 6V15C6 16.1046 6.89543 17 8 17H24C25.1046 17 26 16.1046 26 15V6C26 4.89543 25.1046 4 24 4Z" stroke="#FAFAFA" stroke-width="2.2"/>
<path d="M7.15002 19.7C6.5149 19.7 6.00002 20.2148 6.00002 20.85C6.00002 21.4851 6.5149 22 7.15002 22L7.15002 19.7ZM24.85 22C25.4852 22 26 21.4851 26 20.85C26 20.2148 25.4852 19.7 24.85 19.7L24.85 22ZM10.15 20.7C9.5149 20.7 9.00002 21.2148 9.00002 21.85C9.00002 22.4851 9.5149 23 10.15 23L10.15 20.7ZM21.85 23C22.4852 23 23 22.4851 23 21.85C23 21.2148 22.4852 20.7 21.85 20.7L21.85 23ZM8.15002 24.7C7.5149 24.7 7.00002 25.2148 7.00002 25.85C7.00002 26.4851 7.5149 27 8.15002 27L8.15002 24.7ZM23.85 27C24.4852 27 25 26.4851 25 25.85C25 25.2148 24.4852 24.7 23.85 24.7L23.85 27ZM11.1501 25.7001C10.515 25.7001 10.0001 26.215 10.0001 26.8501C10.0001 27.4852 10.515 28.0001 11.1501 28.0001V25.7001ZM20.8501 28.0001C21.4852 28.0001 22.0001 27.4852 22.0001 26.8501C22.0001 26.215 21.4852 25.7001 20.8501 25.7001V28.0001ZM7.15002 22L24.85 22L24.85 19.7L7.15002 19.7L7.15002 22ZM10.15 23L21.85 23L21.85 20.7L10.15 20.7L10.15 23ZM8.15002 27L23.85 27L23.85 24.7L8.15002 24.7L8.15002 27ZM11.1501 28.0001H20.8501V25.7001H11.1501V28.0001Z" fill="#FAFAFA"/>
<circle cx="11" cy="9" r="2.1" stroke="#FAFAFA" stroke-width="1.8"/>
</svg>
