<svg width="28" height="28" viewBox="0 0 32 32" fill="none" xmlns="http://www.w3.org/2000/svg">
<path d="M16 6.4C16.4243 6.4 16.8313 6.23143 17.1314 5.93137C17.4314 5.63131 17.6 5.22435 17.6 4.8V1.6C17.6 1.17565 17.4314 0.768687 17.1314 0.468629C16.8313 0.168571 16.4243 0 16 0C15.5757 0 15.1687 0.168571 14.8686 0.468629C14.5686 0.768687 14.4 1.17565 14.4 1.6V4.8C14.4 5.22435 14.5686 5.63131 14.8686 5.93137C15.1687 6.23143 15.5757 6.4 16 6.4ZM30.4 14.4H27.2C26.7757 14.4 26.3687 14.5686 26.0686 14.8686C25.7686 15.1687 25.6 15.5757 25.6 16C25.6 16.4243 25.7686 16.8313 26.0686 17.1314C26.3687 17.4314 26.7757 17.6 27.2 17.6H30.4C30.8243 17.6 31.2313 17.4314 31.5314 17.1314C31.8314 16.8313 32 16.4243 32 16C32 15.5757 31.8314 15.1687 31.5314 14.8686C31.2313 14.5686 30.8243 14.4 30.4 14.4ZM6.4 16C6.4 15.5757 6.23143 15.1687 5.93137 14.8686C5.63131 14.5686 5.22435 14.4 4.8 14.4H1.6C1.17565 14.4 0.768687 14.5686 0.468629 14.8686C0.168571 15.1687 0 15.5757 0 16C0 16.4243 0.168571 16.8313 0.468629 17.1314C0.768687 17.4314 1.17565 17.6 1.6 17.6H4.8C5.22435 17.6 5.63131 17.4314 5.93137 17.1314C6.23143 16.8313 6.4 16.4243 6.4 16ZM6.752 4.8C6.44011 4.50508 6.02383 4.34614 5.59474 4.35814C5.16566 4.37014 4.75892 4.55211 4.464 4.864C4.16908 5.17589 4.01014 5.59217 4.02214 6.02125C4.03414 6.45034 4.21611 6.85708 4.528 7.152L6.832 9.376C6.98662 9.5253 7.16973 9.64191 7.3704 9.71888C7.57108 9.79585 7.7852 9.8316 8 9.824C8.21553 9.82318 8.42867 9.77882 8.62663 9.69359C8.82459 9.60835 9.00329 9.484 9.152 9.328C9.45 9.02822 9.61727 8.6227 9.61727 8.2C9.61727 7.7773 9.45 7.37178 9.152 7.072L6.752 4.8ZM24 9.824C24.412 9.82236 24.8074 9.66189 25.104 9.376L27.408 7.152C27.6891 6.85832 27.8478 6.46867 27.852 6.06219C27.8562 5.65571 27.7055 5.26287 27.4305 4.96347C27.1556 4.66407 26.777 4.48055 26.3716 4.45019C25.9662 4.41983 25.5645 4.5449 25.248 4.8L22.944 7.072C22.646 7.37178 22.4787 7.7773 22.4787 8.2C22.4787 8.6227 22.646 9.02822 22.944 9.328C23.221 9.62035 23.5981 9.79747 24 9.824ZM16 25.6C15.5757 25.6 15.1687 25.7686 14.8686 26.0686C14.5686 26.3687 14.4 26.7757 14.4 27.2V30.4C14.4 30.8243 14.5686 31.2313 14.8686 31.5314C15.1687 31.8314 15.5757 32 16 32C16.4243 32 16.8313 31.8314 17.1314 31.5314C17.4314 31.2313 17.6 30.8243 17.6 30.4V27.2C17.6 26.7757 17.4314 26.3687 17.1314 26.0686C16.8313 25.7686 16.4243 25.6 16 25.6ZM25.168 22.624C24.8625 22.3291 24.4523 22.1676 24.0277 22.1751C23.6031 22.1826 23.1989 22.3585 22.904 22.664C22.6091 22.9695 22.4476 23.3797 22.4551 23.8043C22.4626 24.2289 22.6385 24.6331 22.944 24.928L25.248 27.2C25.5446 27.4859 25.94 27.6464 26.352 27.648C26.5664 27.6493 26.7788 27.6074 26.9767 27.525C27.1746 27.4425 27.3539 27.3211 27.504 27.168C27.654 27.0193 27.773 26.8423 27.8542 26.6473C27.9355 26.4523 27.9773 26.2432 27.9773 26.032C27.9773 25.8208 27.9355 25.6117 27.8542 25.4167C27.773 25.2217 27.654 25.0447 27.504 24.896L25.168 22.624ZM6.832 22.624L4.528 24.848C4.37803 24.9967 4.259 25.1737 4.17777 25.3687C4.09654 25.5637 4.05472 25.7728 4.05472 25.984C4.05472 26.1952 4.09654 26.4043 4.17777 26.5993C4.259 26.7943 4.37803 26.9713 4.528 27.12C4.67807 27.2731 4.85737 27.3945 5.05527 27.477C5.25317 27.5594 5.46562 27.6013 5.68 27.6C6.07442 27.6034 6.45619 27.4609 6.752 27.2L9.056 24.976C9.36153 24.6811 9.53739 24.2769 9.54489 23.8523C9.55239 23.4277 9.39092 23.0175 9.096 22.712C8.80108 22.4065 8.39687 22.2306 7.97228 22.2231C7.5477 22.2156 7.13753 22.3771 6.832 22.672V22.624ZM16 9.6C14.7342 9.6 13.4968 9.97535 12.4444 10.6786C11.3919 11.3818 10.5716 12.3814 10.0872 13.5508C9.60277 14.7203 9.47603 16.0071 9.72297 17.2486C9.96992 18.4901 10.5795 19.6304 11.4745 20.5255C12.3696 21.4205 13.5099 22.0301 14.7514 22.277C15.9929 22.524 17.2797 22.3972 18.4492 21.9128C19.6186 21.4284 20.6182 20.6081 21.3214 19.5556C22.0246 18.5032 22.4 17.2658 22.4 16C22.4 14.3026 21.7257 12.6747 20.5255 11.4745C19.3253 10.2743 17.6974 9.6 16 9.6V9.6ZM16 19.2C15.3671 19.2 14.7484 19.0123 14.2222 18.6607C13.6959 18.3091 13.2858 17.8093 13.0436 17.2246C12.8014 16.6399 12.738 15.9965 12.8615 15.3757C12.985 14.755 13.2897 14.1848 13.7373 13.7373C14.1848 13.2897 14.755 12.985 15.3757 12.8615C15.9965 12.738 16.6399 12.8014 17.2246 13.0436C17.8093 13.2858 18.3091 13.6959 18.6607 14.2222C19.0123 14.7484 19.2 15.3671 19.2 16C19.2 16.8487 18.8629 17.6626 18.2627 18.2627C17.6626 18.8629 16.8487 19.2 16 19.2Z" fill="#212121"/>
</svg>
