<svg width="28" height="28" viewBox="0 0 28 28" fill="none" xmlns="http://www.w3.org/2000/svg">
<path d="M22.1717 23.266H5.83832C5.5289 23.266 5.23215 23.3889 5.01336 23.6077C4.79457 23.8265 4.67165 24.1232 4.67165 24.4327C4.67165 24.7421 4.79457 25.0388 5.01336 25.2576C5.23215 25.4764 5.5289 25.5993 5.83832 25.5993H22.1717C22.4811 25.5993 22.7778 25.4764 22.9966 25.2576C23.2154 25.0388 23.3383 24.7421 23.3383 24.4327C23.3383 24.1232 23.2154 23.8265 22.9966 23.6077C22.7778 23.3889 22.4811 23.266 22.1717 23.266ZM5.83832 20.9327H5.94332L10.8083 20.4893C11.3412 20.4362 11.8397 20.2014 12.22 19.8243L22.72 9.32432C23.1275 8.89378 23.3478 8.31925 23.3325 7.72661C23.3172 7.13398 23.0675 6.57158 22.6383 6.16266L19.4417 2.96599C19.0244 2.5741 18.4777 2.34924 17.9055 2.33418C17.3333 2.31912 16.7756 2.51492 16.3383 2.88432L5.83832 13.3843C5.46121 13.7646 5.22641 14.2631 5.17332 14.796L4.67165 19.661C4.65594 19.8319 4.67811 20.0041 4.73659 20.1654C4.79507 20.3268 4.88842 20.4732 5.00998 20.5943C5.119 20.7024 5.24828 20.788 5.39043 20.8461C5.53257 20.9041 5.68478 20.9335 5.83832 20.9327ZM17.82 4.59932L21.005 7.78432L18.6717 10.0593L15.545 6.93266L17.82 4.59932Z" fill="#808080"/>
</svg>
