<svg width="512" height="512" viewBox="0 0 512 512" fill="none" xmlns="http://www.w3.org/2000/svg">
<path d="M128.84 151.828L128.84 0.980813L210.231 0.980813C235.637 0.980813 256.231 21.5757 256.231 46.9808V151.828L128.84 151.828Z" fill="#ECB402"/>
<path d="M128.84 151.828L128.84 0.980813L210.231 0.980813C235.637 0.980813 256.231 21.5757 256.231 46.9808V151.828L128.84 151.828Z" fill="#009B91"/>
<rect x="128.84" y="301.69" width="149.862" height="127.391" transform="rotate(-90 128.84 301.69)" fill="#ECB402"/>
<rect x="128.84" y="301.69" width="149.862" height="127.391" transform="rotate(-90 128.84 301.69)" fill="#006566"/>
<path d="M128.84 483.101C150.075 482.971 170.411 474.624 185.436 459.856C200.579 444.972 209.087 424.784 209.087 403.734C209.087 382.685 200.579 362.497 185.436 347.613C170.411 332.845 150.075 324.498 128.84 324.368L128.84 301.69H256.231V374.649H256.228C255.716 446.988 198.925 505.5 128.84 505.778V483.101Z" fill="#004243"/>
<path d="M1.44922 151.828L1.44922 46.9808C1.44922 21.5757 22.0441 0.980813 47.4492 0.980813L128.84 0.980813L128.84 151.828L1.44922 151.828Z" fill="#ECB402"/>
<path d="M1.44922 151.828L1.44922 46.9808C1.44922 21.5757 22.0441 0.980813 47.4492 0.980813L128.84 0.980813L128.84 151.828L1.44922 151.828Z" fill="#00E1C8"/>
<rect x="1.44922" y="301.69" width="149.862" height="127.391" transform="rotate(-90 1.44922 301.69)" fill="#ECB402"/>
<rect x="1.44922" y="301.69" width="149.862" height="127.391" transform="rotate(-90 1.44922 301.69)" fill="#009B91"/>
<path d="M128.84 483.1V505.777C128.674 505.777 128.509 505.778 128.343 505.778C58.5773 505.778 1.96171 447.16 1.45268 374.649H1.44922L1.44922 301.69H128.84V324.368C118.886 324.307 109 326.084 99.6909 329.615C89.6762 333.415 80.5333 339.167 72.8043 346.531C65.0752 353.896 58.9173 362.722 54.6954 372.488C50.4736 382.254 48.2738 392.76 48.2264 403.383C48.179 414.007 50.285 424.531 54.4196 434.334C58.5542 444.136 64.6332 453.016 72.2962 460.448C79.9593 467.88 89.0505 473.712 99.0309 477.599C108.528 481.297 118.646 483.163 128.84 483.1Z" fill="#006566"/>
<path d="M291.424 220.545L399.097 113.88L456.496 170.742C474.545 188.622 474.545 217.61 456.496 235.49L381.503 309.781L291.424 220.545Z" fill="#ECB402"/>
<path d="M291.424 220.545L399.097 113.88L456.496 170.742C474.545 188.622 474.545 217.61 456.496 235.49L381.503 309.781L291.424 220.545Z" fill="#F13800"/>
<rect width="150.571" height="126.797" transform="matrix(0.710422 -0.703776 0.710422 0.703776 184.455 326.513)" fill="#ECB402"/>
<rect width="150.571" height="126.797" transform="matrix(0.710422 -0.703776 0.710422 0.703776 184.455 326.513)" fill="#C91800"/>
<path d="M54.5984 455.155C61.4261 462.084 69.4829 467.724 78.3753 471.786C88.2449 476.296 98.9374 478.769 109.802 479.054C120.667 479.34 131.477 477.433 141.574 473.449C151.672 469.465 160.845 463.487 168.536 455.88C176.227 448.272 182.276 439.194 186.313 429.197C190.351 419.201 192.293 408.495 192.021 397.731C191.749 386.968 189.27 376.371 184.733 366.587C180.628 357.734 174.917 349.714 167.893 342.921L184.455 326.513L273.831 415.052L221.754 466.642L221.751 466.64C169.758 517.435 88.1495 519.338 38.7811 470.824L54.5984 455.155Z" fill="#9C1300"/>
<path d="M201.345 131.309L276.338 57.017C294.387 39.1375 323.649 39.1375 341.697 57.017L399.097 113.88L291.424 220.545L201.345 131.309Z" fill="#ECB402"/>
<path d="M201.345 131.309L276.338 57.017C294.387 39.1375 323.649 39.1375 341.697 57.017L399.097 113.88L291.424 220.545L201.345 131.309Z" fill="#FF7D00"/>
<rect width="150.571" height="126.797" transform="matrix(0.710422 -0.703776 0.710422 0.703776 94.3761 237.277)" fill="#ECB402"/>
<rect width="150.571" height="126.797" transform="matrix(0.710422 -0.703776 0.710422 0.703776 94.3761 237.277)" fill="#E56700"/>
<path d="M54.5983 455.155L38.7811 470.824C38.6634 470.709 38.5459 470.593 38.4285 470.476C-10.9031 421.606 -9.09588 340.499 42.3015 288.869L42.2991 288.866L94.3761 237.277L184.455 326.513L167.893 342.921C152.937 328.457 132.855 320.347 111.929 320.347C90.6805 320.347 70.3024 328.709 55.2775 343.593C40.2527 358.478 31.8118 378.665 31.8118 399.715C31.8118 420.445 39.9985 440.339 54.5983 455.155Z" fill="#C91800"/>
<path d="M358.741 384.508H511.013V464.707C511.013 490.112 490.419 510.707 465.013 510.707H358.741V384.508Z" fill="#ECB402"/>
<path d="M358.741 384.508H511.013V464.707C511.013 490.112 490.419 510.707 465.013 510.707H358.741V384.508Z" fill="#ECB402"/>
<rect x="207.464" y="384.508" width="151.277" height="126.199" fill="#ECB402"/>
<rect x="207.464" y="384.508" width="151.277" height="126.199" fill="#BB8901"/>
<path d="M133.816 510.708V510.704C60.7939 510.197 1.72979 453.937 1.44922 384.508H65.1466C65.4135 410.348 86.4756 431.212 112.418 431.212C138.361 431.212 159.423 410.348 159.69 384.508H207.464V510.708H133.816Z" fill="#8A5E00"/>
<path d="M358.741 258.309H465.013C490.419 258.309 511.013 278.904 511.013 304.309V384.508H358.741V258.309Z" fill="#ECB402"/>
<path d="M358.741 258.309H465.013C490.419 258.309 511.013 278.904 511.013 304.309V384.508H358.741V258.309Z" fill="#FFE100"/>
<rect x="207.464" y="258.309" width="151.277" height="126.199" fill="#ECB402"/>
<rect x="207.464" y="258.309" width="151.277" height="126.199" fill="#ECB402"/>
<path d="M1.45022 384.508H65.1473C65.1456 384.344 65.1448 384.18 65.1448 384.015C65.1448 358.151 86.3101 337.183 112.419 337.183C138.528 337.183 159.693 358.151 159.693 384.015C159.693 384.18 159.692 384.344 159.69 384.508H207.464V258.309H133.817V258.312C60.6205 258.817 1.44922 314.902 1.44922 384.015C1.44922 384.18 1.44955 384.344 1.45022 384.508Z" fill="#BB8901"/>
</svg>
