<svg width="222" height="222" viewBox="0 0 222 222" fill="none" xmlns="http://www.w3.org/2000/svg">
<path d="M189.135 189.181H156.26V137.668C156.26 125.384 156.01 109.576 139.129 109.576C121.989 109.576 119.371 122.942 119.371 136.761V189.181H86.4967V83.25H118.076V97.6892H118.502C122.914 89.3643 133.644 80.5768 149.674 80.5768C182.984 80.5768 189.144 102.499 189.144 131.036V189.181H189.135ZM49.3672 68.7552C38.7852 68.7552 30.2845 60.1898 30.2845 49.654C30.2845 39.1275 38.7945 30.5713 49.3672 30.5713C59.9123 30.5713 68.4593 39.1275 68.4593 49.654C68.4593 60.1898 59.903 68.7552 49.3672 68.7552ZM65.8507 189.181H32.8838V83.25H65.8507V189.181ZM205.581 0H16.3818C7.326 0 0 7.1595 0 15.9932V206.007C0 214.85 7.326 222 16.3818 222H205.553C214.6 222 222 214.85 222 206.007V15.9932C222 7.1595 214.6 0 205.553 0H205.581Z" fill="#0E76A8"/>
</svg>
