<svg width="32.13" height="32" viewBox="0 0 33 32" fill="none" xmlns="http://www.w3.org/2000/svg">
<path d="M19.2796 31.9981H3.21483C2.35388 32.0279 1.51915 31.7004 0.910001 31.0938C0.300848 30.4871 -0.0280417 29.6559 0.00187674 28.7985V12.8004C-0.0280417 11.943 0.300848 11.1117 0.910001 10.5051C1.51915 9.89848 2.35388 9.57095 3.21483 9.60075H9.64075V3.2015C9.61083 2.34411 9.93972 1.51285 10.5489 0.906225C11.158 0.2996 11.9928 -0.0279253 12.8537 0.00186896H28.9185C29.7795 -0.0279253 30.6142 0.2996 31.2233 0.906225C31.8325 1.51285 32.1614 2.34411 32.1315 3.2015V19.1996C32.1609 20.0569 31.8318 20.8879 31.2228 21.4944C30.6138 22.1009 29.7793 22.4286 28.9185 22.3993H22.4926V28.7985C22.522 29.6557 22.193 30.4867 21.5839 31.0932C20.9749 31.6998 20.1404 32.0274 19.2796 31.9981ZM3.21483 12.8004V28.7985H19.2796V22.3993H12.8537C11.9929 22.4286 11.1584 22.1009 10.5494 21.4944C9.94036 20.8879 9.61131 20.0569 9.64075 19.1996V12.8004H3.21483ZM12.8537 3.2015V19.1996H28.9185V3.2015H12.8537Z" fill="#fafafa"/>
</svg>
