<svg width="27" height="27" viewBox="0 0 27 27" fill="none" xmlns="http://www.w3.org/2000/svg">
<path d="M27 3C27 4.65685 25.6569 6 24 6C22.3431 6 21 4.65685 21 3C21 1.34315 22.3431 0 24 0C25.6569 0 27 1.34315 27 3Z" fill="black"/>
<path d="M21.0603 6.69707C19.8643 5.50247 18.4431 4.5602 16.8801 3.92557C15.3172 3.29093 13.6439 2.97671 11.9586 3.00134C8.79492 2.99339 5.75765 4.24995 3.51498 6.49459C1.27231 8.73923 0.00794659 11.7881 3.73304e-05 14.9705C-0.00787193 18.1528 1.24132 21.208 3.4728 23.4639C5.70429 25.7198 8.73528 26.9916 11.899 26.9996C12.5807 27.0112 13.247 26.7948 13.7932 26.3844C14.3394 25.9739 14.7347 25.3926 14.917 24.7317C15.0331 24.2545 15.0319 23.7559 14.9135 23.2792C14.795 22.8025 14.5628 22.362 14.237 21.9959C14.1617 21.9097 14.1125 21.8035 14.0954 21.69C14.0783 21.5765 14.0938 21.4605 14.1403 21.3556C14.1868 21.2508 14.2622 21.1616 14.3575 21.0985C14.4529 21.0355 14.5643 21.0013 14.6784 21H16.6466C18.4991 21.0087 20.2863 20.3121 21.6493 19.0502C23.0123 17.7882 23.8502 16.0542 23.9948 14.1965C24.0391 12.8113 23.8017 11.4317 23.2971 10.1421C22.7925 8.8525 22.0313 7.68019 21.0603 6.69707ZM16.6943 18.6002H14.7261C14.1513 18.5969 13.5879 18.7615 13.1042 19.0739C12.6205 19.3864 12.2374 19.8333 12.0012 20.3605C11.7651 20.8876 11.6861 21.4724 11.7738 22.0438C11.8615 22.6153 12.1122 23.1488 12.4954 23.5798C12.57 23.6555 12.6228 23.7503 12.648 23.8538C12.6732 23.9574 12.6699 24.0659 12.6386 24.1678C12.5789 24.4197 12.3046 24.5757 11.9348 24.5997C10.58 24.5823 9.24454 24.2748 8.01711 23.6979C6.78967 23.121 5.69842 22.2877 4.81596 21.2536C3.93351 20.2195 3.28006 19.0083 2.8991 17.7005C2.51813 16.3926 2.41838 15.0182 2.60647 13.6685C2.94664 11.4007 4.07318 9.32683 5.78684 7.81387C7.50051 6.3009 9.69088 5.44629 11.9706 5.40117H12.066C13.4149 5.3834 14.7538 5.63756 16.0035 6.14864C17.2533 6.65973 18.3886 7.41739 19.3425 8.37694C20.0869 9.12616 20.6717 10.02 21.0614 11.0041C21.4511 11.9881 21.6374 13.0417 21.609 14.1005C21.4855 15.3281 20.9154 16.4665 20.0083 17.297C19.1012 18.1276 17.9209 18.5917 16.6943 18.6002Z" fill="black"/>
<path d="M12.066 10.2008C13.0542 10.2008 13.8553 9.39495 13.8553 8.40092C13.8553 7.40688 13.0542 6.60105 12.066 6.60105C11.0778 6.60105 10.2767 7.40688 10.2767 8.40092C10.2767 9.39495 11.0778 10.2008 12.066 10.2008Z" fill="black"/>
<path d="M15.9428 9.2409C15.6365 9.41892 15.3895 9.68431 15.233 10.0035C15.0765 10.3227 15.0177 10.6814 15.0638 11.0343C15.11 11.3871 15.2591 11.7183 15.4924 11.9859C15.7256 12.2535 16.0325 12.4456 16.3742 12.5378C16.7159 12.63 17.0772 12.6183 17.4122 12.504C17.7473 12.3898 18.0412 12.1782 18.2568 11.896C18.4723 11.6137 18.5999 11.2736 18.6233 10.9185C18.6467 10.5633 18.5649 10.2092 18.3882 9.90085C18.2708 9.69591 18.1144 9.51625 17.928 9.37214C17.7415 9.22804 17.5286 9.12232 17.3015 9.06103C17.0744 8.99974 16.8375 8.98408 16.6044 9.01494C16.3713 9.0458 16.1465 9.12259 15.9428 9.2409Z" fill="black"/>
<path d="M8.18913 9.24085C7.88257 9.06318 7.53052 8.98091 7.17749 9.00445C6.82445 9.02798 6.48628 9.15627 6.20572 9.3731C5.92515 9.58992 5.71478 9.88554 5.60121 10.2226C5.48764 10.5597 5.47595 10.923 5.56763 11.2668C5.65932 11.6105 5.85025 11.9192 6.1163 12.1538C6.38235 12.3884 6.71157 12.5384 7.06235 12.5848C7.41314 12.6313 7.76973 12.5721 8.08707 12.4147C8.40441 12.2573 8.66824 12.0088 8.84521 11.7007C8.96283 11.4959 9.03916 11.2697 9.06985 11.0352C9.10053 10.8007 9.08496 10.5624 9.02403 10.334C8.9631 10.1055 8.858 9.89139 8.71474 9.70383C8.57148 9.51626 8.39287 9.35894 8.18913 9.24085Z" fill="black"/>
<path d="M5.09959 14.1125C4.8061 14.3119 4.57802 14.5943 4.44421 14.9241C4.31041 15.2539 4.2769 15.6162 4.34793 15.9652C4.41896 16.3142 4.59134 16.6341 4.84324 16.8845C5.09513 17.1349 5.41522 17.3044 5.76297 17.3717C6.11072 17.4389 6.4705 17.4009 6.79674 17.2624C7.12299 17.1238 7.40104 16.8911 7.59568 16.5935C7.79032 16.2959 7.8928 15.9469 7.89014 15.5907C7.88749 15.2345 7.77982 14.8871 7.58077 14.5925C7.45 14.3961 7.28183 14.2278 7.08597 14.0972C6.89011 13.9666 6.67046 13.8764 6.43973 13.8318C6.20899 13.7872 5.97174 13.789 5.74171 13.8372C5.51168 13.8854 5.29343 13.979 5.09959 14.1125Z" fill="black"/>
</svg>
