<svg width="27" height="27" viewBox="0 0 27 27" fill="none" xmlns="http://www.w3.org/2000/svg">
<path d="M27 3C27 4.65685 25.6569 6 24 6C22.3431 6 21 4.65685 21 3C21 1.34315 22.3431 0 24 0C25.6569 0 27 1.34315 27 3Z" fill="black"/>
<path d="M15 13C15.5933 13 16.1734 12.8241 16.6667 12.4944C17.1601 12.1648 17.5446 11.6962 17.7716 11.1481C17.9987 10.5999 18.0581 9.99667 17.9424 9.41473C17.8266 8.83279 17.5409 8.29824 17.1213 7.87868C16.7018 7.45912 16.1672 7.1734 15.5853 7.05764C15.0033 6.94189 14.4001 7.0013 13.8519 7.22836C13.3038 7.45542 12.8352 7.83994 12.5056 8.33329C12.1759 8.82664 12 9.40666 12 10C12 10.7956 12.3161 11.5587 12.8787 12.1213C13.4413 12.6839 14.2044 13 15 13ZM15 9C15.1978 9 15.3911 9.05865 15.5556 9.16853C15.72 9.27841 15.8482 9.43459 15.9239 9.61732C15.9996 9.80004 16.0194 10.0011 15.9808 10.1951C15.9422 10.3891 15.847 10.5673 15.7071 10.7071C15.5673 10.847 15.3891 10.9422 15.1951 10.9808C15.0011 11.0194 14.8 10.9996 14.6173 10.9239C14.4346 10.8482 14.2784 10.72 14.1685 10.5556C14.0586 10.3911 14 10.1978 14 10C14 9.73478 14.1054 9.48043 14.2929 9.29289C14.4804 9.10536 14.7348 9 15 9Z" fill="black"/>
<path d="M22 3H2C1.46957 3 0.960859 3.21071 0.585786 3.58579C0.210714 3.96086 0 4.46957 0 5V25C0 25.5304 0.210714 26.0391 0.585786 26.4142C0.960859 26.7893 1.46957 27 2 27H22C22.5304 27 23.0391 26.7893 23.4142 26.4142C23.7893 26.0391 24 25.5304 24 25V5C24 4.46957 23.7893 3.96086 23.4142 3.58579C23.0391 3.21071 22.5304 3 22 3ZM22 25H2V19L7 14L12.59 19.59C12.9647 19.9625 13.4716 20.1716 14 20.1716C14.5284 20.1716 15.0353 19.9625 15.41 19.59L17 18L22 23V25ZM22 20.17L18.41 16.58C18.0353 16.2075 17.5284 15.9984 17 15.9984C16.4716 15.9984 15.9647 16.2075 15.59 16.58L14 18.17L8.41 12.58C8.03527 12.2075 7.52837 11.9984 7 11.9984C6.47163 11.9984 5.96473 12.2075 5.59 12.58L2 16.17V5H22V20.17Z" fill="black"/>
</svg>
