<svg width="30" height="29" viewBox="0 0 30 29" fill="none" xmlns="http://www.w3.org/2000/svg">
<path d="M30 3C30 4.65685 28.6569 6 27 6C25.3431 6 24 4.65685 24 3C24 1.34315 25.3431 0 27 0C28.6569 0 30 1.34315 30 3Z" fill="#212121"/>
<path d="M3 25.6664V12.3136C3.00018 11.9635 3.08462 11.6185 3.24621 11.3079C3.40779 10.9972 3.64177 10.7301 3.92836 10.5289L14.3738 3.198C14.5574 3.06914 14.7762 3 15.0005 3C15.2248 3 15.4437 3.06914 15.6273 3.198L26.0716 10.5289C26.3582 10.7301 26.5922 10.9972 26.7538 11.3079C26.9154 11.6185 26.9998 11.9635 27 12.3136V25.6664C27 25.9557 26.8851 26.2332 26.6805 26.4378C26.4759 26.6423 26.1984 26.7573 25.9091 26.7573H20.0913C19.8019 26.7573 19.5245 26.6423 19.3199 26.4378C19.1153 26.2332 19.0004 25.9557 19.0004 25.6664V19.4765C19.0004 19.1872 18.8854 18.9097 18.6808 18.7052C18.4763 18.5006 18.1988 18.3856 17.9095 18.3856H12.0905C11.8012 18.3856 11.5237 18.5006 11.3192 18.7052C11.1146 18.9097 10.9996 19.1872 10.9996 19.4765V25.6664C10.9996 25.9557 10.8847 26.2332 10.6801 26.4378C10.4755 26.6423 10.1981 26.7573 9.90873 26.7573H4.09091C3.80158 26.7573 3.5241 26.6423 3.31952 26.4378C3.11493 26.2332 3 25.9557 3 25.6664Z" stroke="#212121" stroke-width="2.5"/>
</svg>
