<svg width="24" height="24" viewBox="0 0 24 24" fill="none" xmlns="http://www.w3.org/2000/svg">
<path d="M15 10C15.5933 10 16.1734 9.82405 16.6667 9.49441C17.1601 9.16476 17.5446 8.69623 17.7716 8.14805C17.9987 7.59987 18.0581 6.99667 17.9424 6.41473C17.8266 5.83279 17.5409 5.29824 17.1213 4.87868C16.7018 4.45912 16.1672 4.1734 15.5853 4.05764C15.0033 3.94189 14.4001 4.0013 13.8519 4.22836C13.3038 4.45542 12.8352 4.83994 12.5056 5.33329C12.1759 5.82664 12 6.40666 12 7C12 7.79565 12.3161 8.55871 12.8787 9.12132C13.4413 9.68393 14.2044 10 15 10ZM15 6C15.1978 6 15.3911 6.05865 15.5556 6.16853C15.72 6.27841 15.8482 6.43459 15.9239 6.61732C15.9996 6.80004 16.0194 7.00111 15.9808 7.19509C15.9422 7.38907 15.847 7.56725 15.7071 7.70711C15.5673 7.84696 15.3891 7.9422 15.1951 7.98079C15.0011 8.01937 14.8 7.99957 14.6173 7.92388C14.4346 7.84819 14.2784 7.72002 14.1685 7.55557C14.0586 7.39112 14 7.19778 14 7C14 6.73478 14.1054 6.48043 14.2929 6.29289C14.4804 6.10536 14.7348 6 15 6Z" fill="#808080"/>
<path d="M22 0H2C1.46957 0 0.960859 0.210714 0.585786 0.585786C0.210714 0.960859 0 1.46957 0 2V22C0 22.5304 0.210714 23.0391 0.585786 23.4142C0.960859 23.7893 1.46957 24 2 24H22C22.5304 24 23.0391 23.7893 23.4142 23.4142C23.7893 23.0391 24 22.5304 24 22V2C24 1.46957 23.7893 0.960859 23.4142 0.585786C23.0391 0.210714 22.5304 0 22 0ZM22 22H2V16L7 11L12.59 16.59C12.9647 16.9625 13.4716 17.1716 14 17.1716C14.5284 17.1716 15.0353 16.9625 15.41 16.59L17 15L22 20V22ZM22 17.17L18.41 13.58C18.0353 13.2075 17.5284 12.9984 17 12.9984C16.4716 12.9984 15.9647 13.2075 15.59 13.58L14 15.17L8.41 9.58C8.03527 9.2075 7.52837 8.99841 7 8.99841C6.47163 8.99841 5.96473 9.2075 5.59 9.58L2 13.17V2H22V17.17Z" fill="#808080"/>
</svg>
