<svg width="32" height="32" viewBox="0 0 32 32" fill="none" xmlns="http://www.w3.org/2000/svg">
<path d="M4 26.898V13.4087C4.00018 13.0551 4.08462 12.7065 4.24621 12.3928C4.40779 12.0789 4.64177 11.8091 4.92836 11.6058L15.3738 4.20002C15.5574 4.06985 15.7762 4 16.0005 4C16.2248 4 16.4437 4.06985 16.6273 4.20002L27.0716 11.6058C27.3582 11.8091 27.5922 12.0789 27.7538 12.3928C27.9154 12.7065 27.9998 13.0551 28 13.4087V26.898C28 27.1902 27.8851 27.4705 27.6805 27.6772C27.4759 27.8838 27.1984 28 26.9091 28H21.0913C20.8019 28 20.5245 27.8838 20.3199 27.6772C20.1153 27.4705 20.0004 27.1902 20.0004 26.898V20.6448C20.0004 20.3526 19.8854 20.0722 19.6808 19.8656C19.4763 19.659 19.1988 19.5428 18.9095 19.5428H13.0905C12.8012 19.5428 12.5237 19.659 12.3192 19.8656C12.1146 20.0722 11.9996 20.3526 11.9996 20.6448V26.898C11.9996 27.1902 11.8847 27.4705 11.6801 27.6772C11.4755 27.8838 11.1981 28 10.9087 28H5.09091C4.80158 28 4.5241 27.8838 4.31952 27.6772C4.11493 27.4705 4 27.1902 4 26.898Z" stroke="#212121" stroke-width="2.5"/>
<circle cx="29" cy="3" r="3" fill="#212121"/>
</svg>
