<svg width="200" height="222" viewBox="0 0 200 222" fill="none" xmlns="http://www.w3.org/2000/svg">
<path d="M192.978 123.007L156.606 143.524L123.984 111.213L156.866 78.6437L192.978 99.0124C195.109 100.214 196.883 101.957 198.116 104.065C199.35 106.173 200 108.569 200 111.01C200 113.45 199.35 115.847 198.116 117.954C196.883 120.062 195.109 121.806 192.978 123.007Z" fill="#FFD400"/>
<path d="M114.332 101.649L144.569 71.6969L20.6503 1.80318C17.9942 0.281868 14.9007 -0.301532 11.8705 0.147413L114.332 101.649Z" fill="#48FF48"/>
<path d="M1.03948 8.5466C0.350734 10.2131 -0.0024556 11.9983 1.28501e-05 13.8007V208.21C1.28501e-05 210.217 0.417654 212.086 1.15085 213.76L104.68 111.204L1.03948 8.5466Z" fill="#3BCCFF"/>
<path d="M114.332 120.769L12.2415 221.9C15.0072 222.233 17.9214 221.752 20.65 220.207L144.309 150.461L114.332 120.769Z" fill="#FF3333"/>
</svg>
