<svg width="222" height="181" viewBox="0 0 222 181" fill="none" xmlns="http://www.w3.org/2000/svg">
<path d="M221.565 21.5597C213.254 25.2305 204.449 27.6536 195.434 28.7509C204.926 23.0281 212.032 14.0534 215.442 3.48429C206.645 8.63411 196.895 12.3828 186.517 14.4706C179.67 7.12563 170.597 2.2541 160.706 0.612472C150.816 -1.02916 140.662 0.65097 131.821 5.39196C122.98 10.133 115.947 17.6695 111.815 26.8313C107.682 35.9931 106.68 46.2674 108.965 56.0588C71.1325 54.268 37.6198 36.0349 15.17 8.49493C11.0888 15.4524 8.96014 23.3879 9.0095 31.4603C9.0095 47.3274 17.057 61.2736 29.2485 69.4669C22.0229 69.2362 14.957 67.2765 8.6395 63.7511V64.3078C8.6354 74.8523 12.268 85.0736 18.9209 93.2374C25.5739 101.401 34.8375 107.005 45.14 109.097C38.4643 110.892 31.4723 111.161 24.679 109.886C27.6031 118.961 33.2784 126.894 40.9129 132.578C48.5474 138.262 57.7603 141.413 67.266 141.592C51.1666 154.267 31.2879 161.146 10.8225 161.124C7.215 161.124 3.61675 160.911 0 160.503C20.8653 173.905 45.1262 181.019 69.9023 181C153.643 181 199.384 111.445 199.384 51.2338C199.384 49.2852 199.384 47.3366 199.245 45.3881C208.18 38.9379 215.888 30.9298 222 21.7453L221.565 21.5597Z" fill="#00ACEE"/>
</svg>
